<!-- Created with Inkscape (http://www.inkscape.org/) -->
<svg xmlns:rdf="http://www.w3.org/1999/02/22-rdf-syntax-ns#" xmlns="http://www.w3.org/2000/svg" xml:space="preserve" version="1.1" xmlns:cc="http://creativecommons.org/ns#" xmlns:dc="http://purl.org/dc/elements/1.1/" viewBox="0 0 803.5 169.56"><metadata><rdf:RDF><cc:Work rdf:about=""><dc:format>image/svg+xml</dc:format><dc:type rdf:resource="http://purl.org/dc/dcmitype/StillImage"/><dc:title/></cc:Work></rdf:RDF></metadata><g transform="matrix(1.25,0,0,-1.25,2.1211121e-4,169.565)"><g fill-rule="nonzero" fill="#231f20" transform="scale(0.1,0.1)"><path d="m2954.6,184.58-81.94,20.262c-27.31,6.59-50.85,19.769-50.85,51.32,0,49.918,40.49,66.871,84.28,66.871,47.56,0,89.94-25.902,91.83-77.23h32.02c0.47,68.75-57.92,104.53-124.32,104.53-94.64,0-115.83-61.68-115.83-94.637,0-52.269,36.26-71.113,75.81-80.992l74.87-18.371c31.08-7.527,69.22-22.598,69.22-60.738,0-48.98-53.68-68.281-89-68.281-61.21,0-111.13,21.191-109.71,90.41h-32.02c-3.8-81.939,54.5-117.72,134.1-117.72,119.13,0,128.55,72.988,128.55,96.059,0,55.089-39.56,75.82-87.11,88.519"/><path d="m3461.2,315.97,117.24,0,0-308.91,32.01,0,0,308.91,117.27,0,0,27.301-266.52,0,0-27.301"/><path d="m4390.2,135.15c0.47-78.179-36.72-107.84-98.89-107.84-61.68,0-98.88,29.66-98.41,107.84v208.12h-32.02v-215.19c0-69.221,37.2-128.08,130.4-128.08,93.71,0,130.92,58.859,130.92,128.08v215.19h-32.03v-208.12"/><path d="m4991.9,34.379-68.26,0,0,281.59,68.26,0c96.54,0.472,138.46-40.5,138.46-140.8s-41.92-141.27-138.46-140.79zm16.01,308.89-116.3,0,0-336.21,116.3,0c101.25,2.3594,154.46,57.922,154.46,168.11,0,110.18-53.21,165.75-154.46,168.1"/><path d="m5621.5,7.0586,32.031,0,0,336.21-32.031,0,0-336.21z"/><path d="m6269.4,27.309c-89,0-126.68,74.402-126.68,147.86,0,73.449,37.68,147.86,126.68,147.86,88.52,0,126.19-74.41,126.19-147.86,0-73.461-37.67-147.86-126.19-147.86zm0,323.02c-105.96,0-158.69-83.34-158.69-175.16,0-91.83,52.7-175.17,158.7-175.17,105.47,0,158.22,83.34,158.22,175.17,0,91.816-52.75,175.16-158.22,175.16"/><path d="m2347.8,733.67-97.74,0,0,395.53,79.55,0c180.74,0,196.64-142.07,196.64-193.22,0-76.137-22.73-202.3-178.45-202.3zm-809.19,81.836,78.43,250.05,2.27,0,72.74-250.05-153.44,0zm871.71,521.7-410.31,0,0-714.62-260.22,714.62-244.37,0-262.49-712.63,0,712.63-355.74,0-115.94-477.37-2.269,0-115.93,477.37-355.76,0,0-264.91c-48.383,16.25-104.84,5.41-136.43-5.59-94.896-434.9-158.1-543.36-122.88-671.74,8.8709-32.36,25.942-56.18,46.77-73.78-12.77,15.11-23.067,33.57-29.297,56.3-37.438,136.51,19.816,260.92,176.17,279.72,156.35,18.7,253.23-165.18,194.88-284.07,99.097-2.223,271.75-26.449,269.54-70.473-3.297-20.925-1.985-23.14-1.985-23.14s69.598-26.418,107.03-42.93c-15.421,30.816,11.016,77.055,56.161,70.469,45.14-6.621,41.828-62.762,27.523-80.367-14.316-17.614-50.656-17.614-50.656-17.614s-31.465-74.16-84.063-78.867h131.52l140.94,520.58h2.278v-520.58h451.16l36.37,115.93h258l34.1-115.93h585.29c283.02,0,414.85,158.01,414.85,406.9,0,204.59-95.49,404.64-365.98,404.64"/><path d="m3525.3,1200.8,0-675.14,102.32,0,0,811.55-147.77,0-256.87-681.96-255.73,681.96-147.77,0,0-811.55,102.31,0,0,675.14,2.27,0,253.46-675.14,92.06,0,253.43,675.14,2.29,0"/><path d="m4059.4,597.27c-197.76,0-280.76,170.5-280.76,334.17s83,334.17,280.76,334.17c197.77,0,280.74-170.5,280.74-334.17s-82.97-334.17-280.74-334.17zm0,759.25c-258.03,0-388.73-204.59-388.73-425.08s130.7-425.09,388.73-425.09c258.01,0,388.71,204.6,388.71,425.09s-130.7,425.08-388.71,425.08"/><path d="m5136.9,818.92,0,518.29-107.97,0,0-518.29c0-143.23-75.02-221.66-211.39-221.66-143.22,0-225.05,78.425-225.05,221.66v518.29h-107.99v-518.29c0-215.96,123.92-312.57,333.04-312.57,202.31,0,319.36,107.98,319.36,312.57"/><path d="m5565.3,982.59c-130.71,29.546-260.26,44.336-260.26,144.32,0,105.73,90.92,138.7,181.84,138.7,111.39,0,188.67-50.03,201.17-165.96h102.31c-6.82,178.45-132.99,256.87-298.91,256.87-147.77,0-294.38-72.76-294.38-237.56,0-148.89,130.71-186.39,260.28-214.79,129.55-28.43,259.12-47.746,259.12-159.14,0-117.06-107.97-147.77-205.7-147.77-122.76,0-236.45,59.109-236.45,195.52h-102.26c0-197.77,153.43-286.43,335.29-286.43,147.77,0,317.11,69.347,317.11,242.1,0,159.13-129.59,204.59-259.16,234.14"/><path d="m5972.2,616.62,0,280.73,421.72,0,0,90.914-421.72,0,0,258,452.39,0,0,90.95-560.32,0,0-811.55,563.73,0,0,90.953-455.8,0"/></g></g></svg>
