<?xml version="1.0" encoding="UTF-8" standalone="no"?>
<!-- Created with Inkscape (http://www.inkscape.org/) -->

<svg
   xmlns:dc="http://purl.org/dc/elements/1.1/"
   xmlns:cc="http://creativecommons.org/ns#"
   xmlns:rdf="http://www.w3.org/1999/02/22-rdf-syntax-ns#"
   xmlns:svg="http://www.w3.org/2000/svg"
   xmlns="http://www.w3.org/2000/svg"
   xmlns:sodipodi="http://sodipodi.sourceforge.net/DTD/sodipodi-0.dtd"
   xmlns:inkscape="http://www.inkscape.org/namespaces/inkscape"
   id="svg2"
   version="1.1"
   inkscape:version="0.48.4 r9939"
   width="803.49524"
   height="169.565"
   xml:space="preserve"
   sodipodi:docname="01_AnagramaOriginal.eps"><metadata
     id="metadata8"><rdf:RDF><cc:Work
         rdf:about=""><dc:format>image/svg+xml</dc:format><dc:type
           rdf:resource="http://purl.org/dc/dcmitype/StillImage" /><dc:title></dc:title></cc:Work></rdf:RDF></metadata><defs
     id="defs6" /><sodipodi:namedview
     pagecolor="#ffffff"
     bordercolor="#666666"
     borderopacity="1"
     objecttolerance="10"
     gridtolerance="10"
     guidetolerance="10"
     inkscape:pageopacity="0"
     inkscape:pageshadow="2"
     inkscape:window-width="640"
     inkscape:window-height="480"
     id="namedview4"
     showgrid="false"
     fit-margin-top="0"
     fit-margin-left="0"
     fit-margin-right="0"
     fit-margin-bottom="0"
     inkscape:zoom="0.44928438"
     inkscape:cx="401.75021"
     inkscape:cy="84.78125"
     inkscape:window-x="0"
     inkscape:window-y="24"
     inkscape:window-maximized="0"
     inkscape:current-layer="g10" /><g
     id="g10"
     inkscape:groupmode="layer"
     inkscape:label="ink_ext_XXXXXX"
     transform="matrix(1.25,0,0,-1.25,2.1211121e-4,169.565)"><g
       id="g12"
       transform="scale(0.1,0.1)"><path
         d="m 2954.56,184.578 -81.94,20.262 c -27.31,6.59 -50.85,19.769 -50.85,51.32 0,49.918 40.49,66.871 84.28,66.871 47.56,0 89.94,-25.902 91.83,-77.23 l 32.02,0 c 0.47,68.75 -57.92,104.527 -124.32,104.527 -94.64,0 -115.83,-61.68 -115.83,-94.637 0,-52.269 36.26,-71.113 75.81,-80.992 l 74.87,-18.371 c 31.08,-7.527 69.22,-22.598 69.22,-60.7382 0,-48.9804 -53.68,-68.2812 -89,-68.2812 -61.21,0 -111.13,21.1914 -109.71,90.4104 l -32.02,0 C 2775.15,35.7813 2833.54,0 2913.12,0 c 119.13,0 128.55,72.9883 128.55,96.0586 0,55.0894 -39.56,75.8204 -87.11,88.5194"
         style="fill:#231f20;fill-opacity:1;fill-rule:nonzero;stroke:none"
         id="path14"
         inkscape:connector-curvature="0" /><path
         d="m 3461.19,315.969 117.24,0 0,-308.91041 32.01,0 0,308.91041 117.27,0 0,27.301 -266.52,0 0,-27.301"
         style="fill:#231f20;fill-opacity:1;fill-rule:nonzero;stroke:none"
         id="path16"
         inkscape:connector-curvature="0" /><path
         d="m 4390.19,135.148 c 0.47,-78.1792 -36.72,-107.8394 -98.89,-107.8394 -61.68,0 -98.88,29.6602 -98.41,107.8394 l 0,208.122 -32.02,0 0,-215.192 C 4160.87,58.8594 4198.08,0 4291.3,0 c 93.71,0 130.92,58.8594 130.92,128.078 l 0,215.192 -32.03,0 0,-208.122"
         style="fill:#231f20;fill-opacity:1;fill-rule:nonzero;stroke:none"
         id="path18"
         inkscape:connector-curvature="0" /><path
         d="m 4991.93,34.3789 -68.26,0 0,281.5901 68.26,0 c 96.54,0.472 138.46,-40.5 138.46,-140.797 0,-100.3009 -41.92,-141.2736 -138.46,-140.7931 z m 16.01,308.8911 -116.3,0 0,-336.21141 116.3,0 c 101.25,2.35938 154.46,57.92191 154.46,168.11341 0,110.18 -53.21,165.75 -154.46,168.098"
         style="fill:#231f20;fill-opacity:1;fill-rule:nonzero;stroke:none"
         id="path20"
         inkscape:connector-curvature="0" /><path
         d="m 5621.46,7.05859 32.0313,0 0,336.211 -32.0313,0 0,-336.211 z"
         style="fill:#231f20;fill-opacity:1;fill-rule:nonzero;stroke:none"
         id="path22"
         inkscape:connector-curvature="0" /><path
         d="m 6269.37,27.3086 c -89,0 -126.68,74.4024 -126.68,147.8634 0,73.449 37.68,147.859 126.68,147.859 88.52,0 126.19,-74.41 126.19,-147.859 0,-73.461 -37.67,-147.8634 -126.19,-147.8634 z m 0,323.0194 c -105.96,0 -158.69,-83.34 -158.69,-175.156 C 6110.68,83.3398 6163.41,0 6269.37,0 c 105.47,0 158.22,83.3398 158.22,175.172 0,91.816 -52.75,175.156 -158.22,175.156"
         style="fill:#231f20;fill-opacity:1;fill-rule:nonzero;stroke:none"
         id="path24"
         inkscape:connector-curvature="0" /><path
         d="m 2347.83,733.672 -97.74,0 0,395.528 79.55,0 c 180.74,0 196.64,-142.071 196.64,-193.223 0,-76.137 -22.73,-202.305 -178.45,-202.305 z m -809.19,81.836 78.43,250.052 2.27,0 72.74,-250.052 -153.44,0 z m 871.71,521.702 -410.31,0 0,-714.62 -260.22,714.62 -244.37,0 -262.49,-712.628 0,712.628 -355.741,0 -115.942,-477.37 -2.269,0 -115.926,477.37 -355.758,0 0,-264.91 c -48.383,16.25 -104.844,5.41 -136.429,-5.59 C 37.7344,1027.32 -25.4688,918.844 9.74609,790.461 18.6172,758.105 35.6875,734.285 56.5156,716.676 43.7461,731.793 33.4492,750.254 27.2188,772.984 -10.2188,909.492 47.0352,1033.92 203.391,1052.66 c 156.351,18.7 253.234,-165.18 194.879,-284.074 99.097,-2.223 271.746,-26.449 269.539,-70.473 -3.297,-20.925 -1.985,-23.14 -1.985,-23.14 0,0 69.598,-26.418 107.031,-42.93 -15.421,30.816 11.016,77.055 56.161,70.469 45.14,-6.621 41.828,-62.762 27.523,-80.367 -14.316,-17.614 -50.656,-17.614 -50.656,-17.614 0,0 -31.465,-74.16 -84.063,-78.867 l 131.524,0 140.937,520.576 2.278,0 0,-520.576 451.161,0 36.37,115.934 258,0 34.1,-115.934 585.29,0 c 283.02,0 414.85,158.008 414.85,406.902 0,204.594 -95.49,404.644 -365.98,404.644"
         style="fill:#231f20;fill-opacity:1;fill-rule:nonzero;stroke:none"
         id="path26"
         inkscape:connector-curvature="0" /><path
         d="m 3525.29,1200.8 0,-675.136 102.32,0 0,811.546 -147.77,0 -256.87,-681.964 -255.73,681.964 -147.77,0 0,-811.546 102.31,0 0,675.136 2.27,0 253.46,-675.136 92.06,0 253.43,675.136 2.29,0"
         style="fill:#231f20;fill-opacity:1;fill-rule:nonzero;stroke:none"
         id="path28"
         inkscape:connector-curvature="0" /><path
         d="m 4059.45,597.266 c -197.76,0 -280.76,170.5 -280.76,334.172 0,163.672 83,334.172 280.76,334.172 197.77,0 280.74,-170.5 280.74,-334.172 0,-163.672 -82.97,-334.172 -280.74,-334.172 z m 0,759.254 c -258.03,0 -388.73,-204.59 -388.73,-425.082 0,-220.493 130.7,-425.09 388.73,-425.09 258.01,0 388.71,204.597 388.71,425.09 0,220.492 -130.7,425.082 -388.71,425.082"
         style="fill:#231f20;fill-opacity:1;fill-rule:nonzero;stroke:none"
         id="path30"
         inkscape:connector-curvature="0" /><path
         d="m 5136.87,818.922 0,518.288 -107.97,0 0,-518.288 c 0,-143.231 -75.02,-221.656 -211.39,-221.656 -143.22,0 -225.05,78.425 -225.05,221.656 l 0,518.288 -107.99,0 0,-518.288 c 0,-215.961 123.92,-312.574 333.04,-312.574 202.31,0 319.36,107.98 319.36,312.574"
         style="fill:#231f20;fill-opacity:1;fill-rule:nonzero;stroke:none"
         id="path32"
         inkscape:connector-curvature="0" /><path
         d="m 5565.31,982.594 c -130.71,29.546 -260.26,44.336 -260.26,144.316 0,105.73 90.92,138.7 181.84,138.7 111.39,0 188.67,-50.03 201.17,-165.96 l 102.31,0 c -6.82,178.45 -132.99,256.87 -298.91,256.87 -147.77,0 -294.38,-72.76 -294.38,-237.56 0,-148.89 130.71,-186.394 260.28,-214.788 129.55,-28.43 259.12,-47.746 259.12,-159.137 0,-117.055 -107.97,-147.769 -205.7,-147.769 -122.76,0 -236.45,59.109 -236.45,195.515 l -102.26,0 c 0,-197.769 153.43,-286.433 335.29,-286.433 147.77,0 317.11,69.347 317.11,242.101 0,159.129 -129.59,204.59 -259.16,234.145"
         style="fill:#231f20;fill-opacity:1;fill-rule:nonzero;stroke:none"
         id="path34"
         inkscape:connector-curvature="0" /><path
         d="m 5972.16,616.617 0,280.727 421.72,0 0,90.914 -421.72,0 0,258.002 452.39,0 0,90.95 -560.32,0 0,-811.546 563.73,0 0,90.953 -455.8,0"
         style="fill:#231f20;fill-opacity:1;fill-rule:nonzero;stroke:none"
         id="path36"
         inkscape:connector-curvature="0" /></g></g></svg>