<?xml version="1.0" encoding="UTF-8" standalone="no"?>
<!-- Created with Inkscape (http://www.inkscape.org/) -->

<svg
   xmlns:dc="http://purl.org/dc/elements/1.1/"
   xmlns:cc="http://creativecommons.org/ns#"
   xmlns:rdf="http://www.w3.org/1999/02/22-rdf-syntax-ns#"
   xmlns:svg="http://www.w3.org/2000/svg"
   xmlns="http://www.w3.org/2000/svg"
   xmlns:sodipodi="http://sodipodi.sourceforge.net/DTD/sodipodi-0.dtd"
   xmlns:inkscape="http://www.inkscape.org/namespaces/inkscape"
   id="svg2"
   version="1.1"
   inkscape:version="0.48.4 r9939"
   width="505.5878"
   height="467.10129"
   xml:space="preserve"
   sodipodi:docname="soluciones BN.fh11.eps"><metadata
     id="metadata8"><rdf:RDF><cc:Work
         rdf:about=""><dc:format>image/svg+xml</dc:format><dc:type
           rdf:resource="http://purl.org/dc/dcmitype/StillImage" /><dc:title></dc:title></cc:Work></rdf:RDF></metadata><defs
     id="defs6" /><sodipodi:namedview
     pagecolor="#ffffff"
     bordercolor="#666666"
     borderopacity="1"
     objecttolerance="10"
     gridtolerance="10"
     guidetolerance="10"
     inkscape:pageopacity="0"
     inkscape:pageshadow="2"
     inkscape:window-width="640"
     inkscape:window-height="480"
     id="namedview4"
     showgrid="false"
     fit-margin-top="0"
     fit-margin-left="0"
     fit-margin-right="0"
     fit-margin-bottom="0"
     inkscape:zoom="0.50079576"
     inkscape:cx="252.86279"
     inkscape:cy="234.86816"
     inkscape:window-x="0"
     inkscape:window-y="24"
     inkscape:window-maximized="0"
     inkscape:current-layer="g10" /><g
     id="g10"
     inkscape:groupmode="layer"
     inkscape:label="ink_ext_XXXXXX"
     transform="matrix(1.25,0,0,-1.25,-0.8872075,467.85813)"><g
       id="g12"
       transform="scale(0.1,0.1)"><path
         d="m 144.969,638.523 c -10.922,2.258 -31.266,6.028 -55.7502,6.028 -50.1055,0 -82.12114,-22.606 -82.12114,-63.66 0,-79.11 120.91834,-69.688 120.91834,-133.352 0,-32.019 -19.586,-47.84 -52.7347,-47.84 -25.6211,0 -51.6094,9.793 -65.54302,16.574 l 0,-25.988 c 6.40232,-1.508 33.89842,-7.539 60.26562,-7.539 48.5981,0 91.5431,20.723 91.5431,72.707 0,82.496 -124.3126,74.957 -124.3126,134.477 0,22.98 18.457,37.672 45.582,37.672 26.3676,0 50.4726,-10.172 62.1526,-15.442 l 0,26.363"
         style="fill:#231f20;fill-opacity:1;fill-rule:nonzero;stroke:none"
         id="path14"
         inkscape:connector-curvature="0" /><path
         d="m 293,382.746 c 74.59,0 97.945,50.852 97.945,130.715 0,74.961 -22.601,131.09 -97.945,131.09 -74.961,0 -98.691,-50.477 -98.691,-131.09 0,-74.965 21.093,-130.715 98.691,-130.715 z m 0,14.695 c -59.141,0 -61.781,68.93 -61.781,116.02 0,51.984 4.144,116.402 61.781,116.402 58.387,0 61.023,-68.937 61.023,-116.402 0,-51.606 -4.14,-116.02 -61.023,-116.02"
         style="fill:#231f20;fill-opacity:1;fill-rule:evenodd;stroke:none"
         id="path16"
         inkscape:connector-curvature="0" /><path
         d="m 447.809,386.895 139.535,0 1.898,55.746 -11.836,0 c -3.011,-25.239 -4.144,-41.059 -32.402,-41.059 l -33.531,0 c -30.891,0 -30.891,2.258 -30.891,33.148 l 0,205.68 -70.445,-8.668 0,-6.406 c 25.992,-3.012 37.672,-1.879 37.672,-27.871 l 0,-210.57"
         style="fill:#231f20;fill-opacity:1;fill-rule:nonzero;stroke:none"
         id="path18"
         inkscape:connector-curvature="0" /><path
         d="m 800.383,640.41 -22.219,0 0,-164.242 c 0,-35.406 0,-78.727 -62.16,-78.727 -54.617,0 -54.617,54.243 -54.617,81.739 l 0,161.23 -70.446,-8.668 0,-6.406 c 25.622,-3.012 37.672,-1.879 37.672,-27.871 l 0,-118.285 c 0,-52.36 6.024,-96.434 87.02,-96.434 84.75,0 84.75,51.613 84.75,97.942 l 0,159.722"
         style="fill:#231f20;fill-opacity:1;fill-rule:nonzero;stroke:none"
         id="path20"
         inkscape:connector-curvature="0" /><path
         d="m 1030.53,409.121 c -4.52,-1.516 -27.88,-9.422 -50.096,-9.422 -82.5,0 -93.047,78.727 -93.047,132.219 0,57.633 21.093,95.684 61.023,95.684 36.918,0 43.32,-26.75 45.207,-38.422 l 36.913,0 c -2.64,25.609 -22.98,55.371 -79.854,55.371 -77.223,0 -100.203,-53.867 -100.203,-122.43 0,-76.465 38.422,-139.375 109.238,-139.375 35.031,0 52.739,4.524 70.819,10.547 l 0,15.828"
         style="fill:#231f20;fill-opacity:1;fill-rule:nonzero;stroke:none"
         id="path22"
         inkscape:connector-curvature="0" /><path
         d="m 1077.2,386.895 32.77,0 0,253.515 -70.44,-8.668 0,-6.406 c 25.99,-3.012 37.67,-1.879 37.67,-27.871 l 0,-210.57"
         style="fill:#231f20;fill-opacity:1;fill-rule:nonzero;stroke:none"
         id="path24"
         inkscape:connector-curvature="0" /><path
         d="m 1263.23,382.746 c 74.59,0 97.95,50.852 97.95,130.715 0,74.961 -22.6,131.09 -97.95,131.09 -74.96,0 -98.69,-50.477 -98.69,-131.09 0,-74.965 21.1,-130.715 98.69,-130.715 z m 0,14.695 c -59.14,0 -61.77,68.93 -61.77,116.02 0,51.984 4.14,116.402 61.77,116.402 58.39,0 61.03,-68.937 61.03,-116.402 0,-51.606 -4.15,-116.02 -61.03,-116.02"
         style="fill:#231f20;fill-opacity:1;fill-rule:evenodd;stroke:none"
         id="path26"
         inkscape:connector-curvature="0" /><path
         d="m 1417.29,386.895 19.59,0 0,221.117 0.75,0 127.32,-221.117 28.63,0 0,253.515 -19.58,0 0,-205.68 -0.76,0 -118.28,205.68 -75.34,0 0,-6.406 c 32.39,-5.274 37.67,-7.914 37.67,-38.047 l 0,-209.062"
         style="fill:#231f20;fill-opacity:1;fill-rule:nonzero;stroke:none"
         id="path28"
         inkscape:connector-curvature="0" /><path
         d="m 1662.89,386.895 146.31,0 2.66,51.23 -11.84,0 c -5.27,-28.633 -7.16,-36.543 -32.78,-36.543 l -40.69,0 c -27.49,0 -30.88,0 -30.88,21.848 l 0,88.523 47.83,0 c 32.03,0 33.15,-10.172 36.93,-32.019 l 8.66,0 0,77.976 -8.66,0 c -3.02,-17.703 -5.66,-31.265 -36.93,-31.265 l -47.83,0 0,74.207 c 0,20.339 1.5,24.863 22.97,24.863 l 39.56,0 c 31.26,0 30.89,-11.68 34.67,-31.266 l 11.83,0 -1.89,45.961 -177.96,0 0,-6.406 c 32.77,-4.524 38.04,-11.68 38.04,-33.152 l 0,-213.957"
         style="fill:#231f20;fill-opacity:1;fill-rule:nonzero;stroke:none"
         id="path30"
         inkscape:connector-curvature="0" /><path
         d="m 1981.13,638.523 c -10.92,2.258 -31.26,6.028 -55.75,6.028 -50.1,0 -82.12,-22.606 -82.12,-63.66 0,-79.11 120.92,-69.688 120.92,-133.352 0,-32.019 -19.59,-47.84 -52.74,-47.84 -25.62,0 -51.61,9.793 -65.54,16.574 l 0,-25.988 c 6.4,-1.508 33.9,-7.539 60.26,-7.539 48.61,0 91.55,20.723 91.55,72.707 0,82.496 -124.31,74.957 -124.31,134.477 0,22.98 18.46,37.672 45.58,37.672 26.36,0 50.47,-10.172 62.15,-15.442 l 0,26.363"
         style="fill:#231f20;fill-opacity:1;fill-rule:nonzero;stroke:none"
         id="path32"
         inkscape:connector-curvature="0" /><path
         d="m 2158.51,386.895 40.69,0 c 78.72,0 139.75,15.062 139.75,126.566 0,111.504 -58.39,126.949 -138.25,126.949 l -79.86,0 0,-6.406 c 32.77,-6.402 37.67,-7.914 37.67,-36.539 l 0,-210.57 z m 32.78,210.57 c 0,24.48 3.01,28.25 25.61,28.25 67.43,0 85.13,-47.465 85.13,-112.254 0,-78.731 -30.14,-111.879 -90.78,-111.879 -19.96,0 -19.96,9.414 -19.96,27.879 l 0,168.004"
         style="fill:#231f20;fill-opacity:1;fill-rule:evenodd;stroke:none"
         id="path34"
         inkscape:connector-curvature="0" /><path
         d="m 2396.19,386.895 146.31,0 2.66,51.23 -11.84,0 c -5.28,-28.633 -7.17,-36.543 -32.79,-36.543 l -40.68,0 c -27.5,0 -30.89,0 -30.89,21.848 l 0,88.523 47.84,0 c 32.02,0 33.15,-10.172 36.92,-32.019 l 8.66,0 0,77.976 -8.66,0 c -3.02,-17.703 -5.65,-31.265 -36.92,-31.265 l -47.84,0 0,74.207 c 0,20.339 1.51,24.863 22.98,24.863 l 39.55,0 c 31.27,0 30.89,-11.68 34.67,-31.266 l 11.84,0 -1.9,45.961 -177.96,0 0,-6.406 c 32.78,-4.524 38.05,-11.68 38.05,-33.152 l 0,-213.957"
         style="fill:#231f20;fill-opacity:1;fill-rule:nonzero;stroke:none"
         id="path36"
         inkscape:connector-curvature="0" /><path
         d="m 2881.26,527.773 -70.81,0 0,-6.402 c 32.77,-5.273 38.05,-8.285 38.05,-38.047 l 0,-80.234 c -10.55,-2.641 -16.58,-3.391 -29.02,-3.391 -72.32,0 -92.28,63.664 -92.28,126.946 0,41.058 6.03,100.957 64.78,100.957 39.56,0 48.23,-24.864 50.11,-39.555 l 36.91,0 c -2.25,31.269 -29.75,56.504 -86.26,56.504 -79.1,0 -102.45,-48.969 -102.45,-120.918 0,-88.903 34.65,-140.887 111.87,-140.887 34.28,0 68.18,8.289 79.1,10.926 l 0,134.101"
         style="fill:#231f20;fill-opacity:1;fill-rule:nonzero;stroke:none"
         id="path38"
         inkscape:connector-curvature="0" /><path
         d="m 2947.93,386.895 146.3,0 2.66,51.23 -11.84,0 c -5.27,-28.633 -7.16,-36.543 -32.78,-36.543 l -40.68,0 c -27.5,0 -30.89,0 -30.89,21.848 l 0,88.523 47.84,0 c 32.02,0 33.14,-10.172 36.91,-32.019 l 8.67,0 0,77.976 -8.67,0 c -3.01,-17.703 -5.65,-31.265 -36.91,-31.265 l -47.84,0 0,74.207 c 0,20.339 1.5,24.863 22.98,24.863 l 39.55,0 c 31.27,0 30.89,-11.68 34.67,-31.266 l 11.83,0 -1.89,45.961 -177.96,0 0,-6.406 c 32.77,-4.524 38.05,-11.68 38.05,-33.152 l 0,-213.957"
         style="fill:#231f20;fill-opacity:1;fill-rule:nonzero;stroke:none"
         id="path40"
         inkscape:connector-curvature="0" /><path
         d="m 3266.16,638.523 c -10.92,2.258 -31.26,6.028 -55.75,6.028 -50.11,0 -82.12,-22.606 -82.12,-63.66 0,-79.11 120.92,-69.688 120.92,-133.352 0,-32.019 -19.59,-47.84 -52.74,-47.84 -25.61,0 -51.61,9.793 -65.54,16.574 l 0,-25.988 c 6.4,-1.508 33.9,-7.539 60.27,-7.539 48.6,0 91.54,20.723 91.54,72.707 0,82.496 -124.31,74.957 -124.31,134.477 0,22.98 18.45,37.672 45.58,37.672 26.37,0 50.47,-10.172 62.15,-15.442 l 0,26.363"
         style="fill:#231f20;fill-opacity:1;fill-rule:nonzero;stroke:none"
         id="path42"
         inkscape:connector-curvature="0" /><path
         d="m 3379.92,386.895 32.77,0 0,238.82 33.91,0 c 32.4,0 32.4,-13.555 34.67,-36.535 l 11.82,0 -1.89,51.23 -189.79,0 -1.91,-51.23 11.84,0 c 2.27,22.98 3.02,36.535 34.66,36.535 l 33.92,0 0,-238.82"
         style="fill:#231f20;fill-opacity:1;fill-rule:nonzero;stroke:none"
         id="path44"
         inkscape:connector-curvature="0" /><path
         d="m 3535.42,386.895 32.77,0 0,253.515 -70.44,-8.668 0,-6.406 c 25.99,-3.012 37.67,-1.879 37.67,-27.871 l 0,-210.57"
         style="fill:#231f20;fill-opacity:1;fill-rule:nonzero;stroke:none"
         id="path46"
         inkscape:connector-curvature="0" /><path
         d="m 3709.02,670.547 16.2,0 22.23,31.262 c 4.52,6.781 7.16,10.925 7.16,15.07 0,7.91 -6.79,12.809 -14.32,12.809 -11.3,0 -15.07,-4.149 -18.46,-15.829 l -12.81,-43.312 z m 12.43,-287.801 c 74.59,0 97.94,50.852 97.94,130.715 0,74.961 -22.59,131.09 -97.94,131.09 -74.96,0 -98.69,-50.477 -98.69,-131.09 0,-74.965 21.1,-130.715 98.69,-130.715 z m 0,14.695 c -59.14,0 -61.78,68.93 -61.78,116.02 0,51.984 4.15,116.402 61.78,116.402 58.39,0 61.03,-68.937 61.03,-116.402 0,-51.606 -4.15,-116.02 -61.03,-116.02"
         style="fill:#231f20;fill-opacity:1;fill-rule:evenodd;stroke:none"
         id="path48"
         inkscape:connector-curvature="0" /><path
         d="m 3875.51,386.895 19.59,0 0,221.117 0.75,0 127.32,-221.117 28.63,0 0,253.515 -19.59,0 0,-205.68 -0.75,0 -118.28,205.68 -75.34,0 0,-6.406 c 32.39,-5.274 37.67,-7.914 37.67,-38.047 l 0,-209.062"
         style="fill:#231f20;fill-opacity:1;fill-rule:nonzero;stroke:none"
         id="path50"
         inkscape:connector-curvature="0" /><path
         d="m 891.734,1980.03 c 0,421.32 517.626,762.85 1156.176,762.85 638.54,0 1156.17,-341.53 1156.17,-762.85 0,-421.32 -517.63,-762.86 -1156.17,-762.86 -638.55,0 -1156.176,341.54 -1156.176,762.86 z"
         style="fill:none;stroke:#231f20;stroke-width:34.89199829;stroke-linecap:butt;stroke-linejoin:miter;stroke-miterlimit:3.8636899;stroke-opacity:1;stroke-dasharray:none"
         id="path52"
         inkscape:connector-curvature="0" /><path
         d="m 778.719,1769.71 c 0,305.17 568.231,552.54 1269.191,552.54 700.96,0 1269.19,-247.37 1269.19,-552.54 0,-305.16 -568.23,-552.54 -1269.19,-552.54 -700.96,0 -1269.191,247.38 -1269.191,552.54 z"
         style="fill:none;stroke:#231f20;stroke-width:34.89199829;stroke-linecap:butt;stroke-linejoin:miter;stroke-miterlimit:3.8636899;stroke-opacity:1;stroke-dasharray:none"
         id="path54"
         inkscape:connector-curvature="0" /><path
         d="m 518.473,1507.04 c 0,160.09 684.737,289.87 1529.437,289.87 844.69,0 1529.43,-129.78 1529.43,-289.87 0,-160.09 -684.74,-289.87 -1529.43,-289.87 -844.7,0 -1529.437,129.78 -1529.437,289.87 z"
         style="fill:none;stroke:#231f20;stroke-width:34.89199829;stroke-linecap:butt;stroke-linejoin:miter;stroke-miterlimit:3.8636899;stroke-opacity:1;stroke-dasharray:none"
         id="path56"
         inkscape:connector-curvature="0" /><path
         d="m 1691.84,906.492 c 357.23,181.458 509.1,387.008 520.04,700.228 5.09,145.9 -22.26,283.86 -81.41,413.18 l -272.76,643.45 c -44.78,103.91 -55.81,220.05 -52.1,326.12 8.21,235.24 119.82,370.24 397.62,517.87 l -75.98,179.36 c -352.2,-186.08 -501.47,-400.31 -512.45,-714.7 -4.68,-133.89 14.29,-271.09 72.29,-393.25 l 268.54,-639.43 c 46.48,-112.6 74.56,-228.44 70.81,-335.79 -8.38,-239.99 -124.65,-379.62 -407.23,-515.28 l 72.63,-181.758"
         style="fill:#ffffff;fill-opacity:1;fill-rule:nonzero;stroke:none"
         id="path58"
         inkscape:connector-curvature="0" /><path
         d="m 1691.84,906.492 c 357.23,181.458 509.1,387.008 520.04,700.228 5.09,145.9 -22.26,283.86 -81.41,413.18 l -272.76,643.45 c -44.78,103.91 -55.81,220.05 -52.1,326.12 8.21,235.24 119.82,370.24 397.62,517.87 l -75.98,179.36 c -352.2,-186.08 -501.47,-400.31 -512.45,-714.7 -4.68,-133.89 14.29,-271.09 72.29,-393.25 l 268.54,-639.43 c 46.48,-112.6 74.56,-228.44 70.81,-335.79 -8.38,-239.99 -124.65,-379.62 -407.23,-515.28 l 72.63,-181.758 z"
         style="fill:none;stroke:#ffffff;stroke-width:112.33000183;stroke-linecap:butt;stroke-linejoin:miter;stroke-miterlimit:3.8636899;stroke-opacity:1;stroke-dasharray:none"
         id="path60"
         inkscape:connector-curvature="0" /><path
         d="m 1691.84,906.492 c 357.23,181.458 509.1,387.008 520.04,700.228 5.09,145.9 -22.26,283.86 -81.41,413.18 l -272.76,643.45 c -44.78,103.91 -55.81,220.05 -52.1,326.12 8.21,235.24 119.82,370.24 397.62,517.87 l -75.98,179.36 c -352.2,-186.08 -501.47,-400.31 -512.45,-714.7 -4.68,-133.89 14.29,-271.09 72.29,-393.25 l 268.54,-639.43 c 46.48,-112.6 74.56,-228.44 70.81,-335.79 -8.38,-239.99 -124.65,-379.62 -407.23,-515.28 l 72.63,-181.758"
         style="fill:#231f20;fill-opacity:1;fill-rule:nonzero;stroke:none"
         id="path62"
         inkscape:connector-curvature="0" /><path
         d="m 142.398,86.0547 0,-75.8594 32.774,0 0,75.8594 -32.774,0 z m 256.071,0 -28.293,-75.8594 23.734,0 26.871,75.8594 -22.312,0 z m 123.195,0 28.574,-75.8594 36.535,0 -29.078,75.8555 -36.031,0.0039 z m 102.008,0 0,-75.8594 32.769,0 0,75.8555 -32.769,0.0039 z m 190.242,0 c 9.332,-48.0234 35.688,-80.00001 94.461,-80.00001 57.254,0 84.324,29.96091 93.815,80.00001 l -35.62,0 C 961.414,50.668 947.145,20.7422 908.375,20.7422 c -39.562,0 -53.84,30.8476 -58.957,65.3711 l -35.504,-0.0586 z m 292.216,0 0,-75.8594 32.77,0 0,75.8594 -32.77,0 z m 140.5,0 c 9.33,-48.0234 35.69,-80.00001 94.47,-80.00001 57.25,0 84.32,29.96091 93.81,80.00001 l -35.62,0 c -5.15,-35.3867 -19.42,-65.3125 -58.19,-65.3125 -39.56,0 -53.85,30.8476 -58.96,65.3711 l -35.51,-0.0586 z m 352.87,0 -28.29,-75.8594 23.73,0 26.87,75.8594 -22.31,0 z m 123.2,0 28.57,-75.8594 36.53,0 -29.07,75.8555 -36.03,0.0039 z m 213.84,0 0,-75.8594 146.31,0 2.66,51.2305 -11.84,0 c -5.28,-28.6289 -7.17,-36.5391 -32.78,-36.5391 l -40.69,0 c -27.5,0 -30.89,0 -30.89,21.8516 l 0,39.3164 -32.77,0 z m 202.21,0 0,-75.8594 19.59,0 0,75.8594 -19.59,0 z m 73,0 25.7,-75.8594 29.38,0 25.57,75.8594 -20.07,0 -13.41,-38.9414 -13.54,38.9375 -33.63,0.0039 z m 134.32,0 0.24,-75.8594 32.78,0 0,75.8555 -33.02,0.0039 z m 100.45,0 0,-75.8594 32.77,0 0,75.8555 -32.77,0.0039 z m 201.83,0 0,-75.8594 32.78,0 0,75.8555 -32.78,0.0039 z m 80.97,0 45.61,-75.8594 36.91,0 -45.47,75.8594 -37.05,0 z m 129.2,0 0,-75.8594 146.3,0 2.66,51.2305 -11.84,0 c -5.28,-28.6289 -7.16,-36.5391 -32.78,-36.5391 l -40.69,0 c -27.5,0 -30.89,0 -30.89,21.8516 l 0,39.3164 -32.76,0 z m 298.61,0 c 1.72,-4.5313 2.67,-9.5859 2.67,-15.2109 0,-32.0157 -19.59,-47.8399 -52.74,-47.8399 -25.62,0 -51.61,9.793 -65.54,16.5781 l 0,-25.9961 c 6.4,-1.5039 33.89,-7.53121 60.26,-7.53121 48.6,0 91.54,20.71871 91.54,72.70311 0,2.4961 -0.11,4.9141 -0.33,7.25 l -35.86,0.0469 z m 76.91,0 -28.29,-75.8594 23.73,0 26.87,75.8594 -22.31,0 z m 123.19,0 28.57,-75.8594 36.54,0 -29.07,75.8555 -36.04,0.0039 z m 198.04,0 c 1.71,-4.5313 2.66,-9.5859 2.66,-15.2109 0,-32.0157 -19.59,-47.8399 -52.73,-47.8399 -25.63,0 -51.62,9.793 -65.55,16.5781 l 0,-25.9961 c 6.4,-1.5039 33.9,-7.53121 60.27,-7.53121 48.6,0 91.54,20.71871 91.54,72.70311 0,2.4961 -0.12,4.9141 -0.33,7.25 l -35.86,0.0469 z m 230.12,0 c 12.75,-7.957 22.24,-17.4414 22.24,-32.668 0,-23.332 -14.27,-34.8633 -38.43,-34.8633 -18.67,0 -37.61,7.1368 -47.77,12.0821 l 0,-18.9453 c 4.67,-1.0938 24.71,-5.48832 43.93,-5.48832 35.41,0 66.7,15.09762 66.7,52.98042 0,10.8672 -2.95,19.5821 -7.8,26.836 l -38.87,0.0664 z m 95.23,0 0,-76.86329 101.68,0 1.39,40.62499 -8.63,0 c -2.19,-18.3906 -3.02,-29.9219 -23.61,-29.9219 l -24.44,0 c -22.51,0 -22.51,1.6485 -22.51,24.1602 l 0,42 -23.88,0 z m -37.18,-66.7461 c 0,5.9687 4.85,10.8125 10.82,10.8125 5.97,0 10.81,-4.8438 10.81,-10.8125 0,-5.9766 -4.84,-10.82032 -10.81,-10.82032 -5.97,0 -10.82,4.84372 -10.82,10.82032 z m 150.12,0 c 0,5.9687 4.84,10.8125 10.82,10.8125 5.97,0 10.81,-4.8438 10.81,-10.8125 0,-5.9766 -4.84,-10.82032 -10.81,-10.82032 -5.98,0 -10.82,4.84372 -10.82,10.82032"
         style="fill:#231f20;fill-opacity:1;fill-rule:evenodd;stroke:none"
         id="path64"
         inkscape:connector-curvature="0" /><path
         d="m 120.52,166.055 21.878,-36.825 0,-43.1753 32.774,0 0,43.1753 22.797,36.821 -24.739,0.004 -7.851,-12.711 -7.547,12.711 -37.312,0 z m 307.789,0 -29.84,-80.0003 22.312,0 2.887,8.1484 94.926,0 3.07,-8.1484 36.031,0 -30.668,80.0003 -33.754,0 21.176,-57.168 -85.504,0 21.364,57.168 -22,0 z m 195.363,0 0,-80.0042 32.769,0.0039 0,46.1913 16.95,0 c 36.847,0 82.894,0 99.703,33.781 l -38.426,0.028 c -12.355,-17.981 -37.191,-19.117 -62.031,-19.117 l -16.196,0 0,19.117 -32.769,0 z m 187.223,0 c -0.825,-9.246 -1.211,-19.024 -1.211,-29.289 0,-18.188 1.242,-35.239 4.23,-50.641 l 35.504,-0.0703 c -2.531,17.1403 -2.82,35.1213 -2.82,50.7113 0,9.496 0.136,19.41 0.715,29.269 l -36.418,0.02 z m 157.832,0 c 0.574,-10.168 0.675,-20.129 0.675,-29.289 0,-16.434 -0.422,-34.164 -2.832,-50.6996 l 35.62,-0.0117 c 2.87,15.1563 4.13,32.1483 4.13,50.7113 0,10.113 -0.41,19.879 -1.31,29.214 l -36.283,0.075 z m 115.523,0 21.88,-36.825 0,-43.1753 32.77,0 0,43.1753 22.8,36.821 -24.74,0.004 -7.85,-12.711 -7.55,12.711 -37.31,0 z m 159.37,0 c -0.83,-9.246 -1.21,-19.024 -1.21,-29.289 0,-18.188 1.23,-35.239 4.22,-50.641 l 35.51,-0.0703 c -2.53,17.1403 -2.82,35.1213 -2.82,50.7113 0,9.496 0.14,19.41 0.71,29.269 l -36.41,0.02 z m 157.83,0 c 0.57,-10.168 0.67,-20.129 0.67,-29.289 0,-16.434 -0.42,-34.164 -2.83,-50.6996 l 35.62,-0.0117 c 2.87,15.1563 4.13,32.1483 4.13,50.7113 0,10.113 -0.41,19.879 -1.31,29.214 l -36.28,0.075 z m 227.89,0 -29.84,-80.0003 22.31,0 2.89,8.1484 94.93,0 3.07,-8.1484 36.03,0 -30.67,80.0003 -33.76,0 21.18,-57.168 -85.51,0 21.37,57.168 -22,0 z m 307.2,0 0,-80.0003 32.77,0 0,49.2033 47.84,0 c 32.03,0 33.15,-10.172 36.92,-32.02 l 8.66,0 0,62.813 -12.26,0.004 c -3.86,-9.696 -11.82,-16.102 -33.32,-16.102 l -47.84,0 0,16.098 -32.77,0.004 z m 202.21,0 0,-80.0003 19.59,0 0,80.0003 -19.59,0 z m 45.91,0 27.09,-80.0003 33.63,0 -27.83,80.0003 -32.89,0 z m 115.22,0 -27.55,-80.0042 20.07,0.0039 26.97,80.0003 -19.49,0 z m 45.93,0 0.26,-80.0003 33.02,0 0,80.0003 -33.28,0 z m 100.71,0 0,-80.0042 32.77,0.0039 0,46.1913 16.95,0 c 36.85,0 82.89,0 99.7,33.781 l -38.42,0.028 c -12.36,-17.981 -37.2,-19.117 -62.03,-19.117 l -16.2,0 0,19.117 -32.77,0 z m 201.83,0 0,-80.0042 32.78,0.0039 0,48.8243 18.83,0 29.36,-48.8282 37.05,0.0039 -30.62,51.0903 c 22.73,3.097 44.92,10.621 56.63,28.882 l -40.48,0.028 c -15.48,-16.485 -42.46,-16.485 -60.6,-16.485 l -10.17,0 0,16.485 -32.78,0 z m 210.17,0 0,-80.0003 32.76,0 0,49.2033 47.84,0 c 32.02,0 33.15,-10.172 36.92,-32.02 l 8.66,0 0,62.813 -12.26,0.004 c -3.86,-9.696 -11.82,-16.102 -33.32,-16.102 l -47.84,0 0,16.098 -32.76,0.004 z m 192.98,0 c 27.57,-35.7 91.77,-42.946 105.63,-79.9339 l 35.86,-0.0664 c -4.32,45.6133 -49.51,61.4333 -84.09,79.9293 l -57.4,0.071 z m 212.38,0 -29.84,-80.0003 22.31,0 2.88,8.1484 94.93,0 3.07,-8.1484 36.04,0 -30.67,80.0003 -33.76,0 21.18,-57.168 -85.51,0 21.37,57.168 -22,0 z m 185.76,0 c 27.56,-35.7 91.77,-42.946 105.63,-79.9339 l 35.86,-0.0664 c -4.33,45.6133 -49.51,61.4333 -84.1,79.9293 l -57.39,0.071 z m 272.29,0 c -1.59,-4.688 -2.42,-9.848 -2.42,-15.489 0,-38.73 39.78,-48.343 65.88,-64.5504 l 38.87,0.0391 c -21.97,32.8283 -82.79,35.5623 -82.79,71.1013 0,3.215 0.49,6.203 1.44,8.938 l -20.98,-0.039 z m 158.58,0 c 0.07,-1.055 0.11,-2.188 0.11,-3.407 l 0,-76.5933 23.88,0 0,79.9963 -23.99,0.004"
         style="fill:#231f20;fill-opacity:1;fill-rule:evenodd;stroke:none"
         id="path66"
         inkscape:connector-curvature="0" /><path
         d="m 71.3555,246.055 c 5.7148,-6.032 10.4687,-14.746 17.5547,-26.797 l 31.6098,-53.203 37.312,0 -47.508,79.996 -38.9685,0.004 z m 151.2925,0 -49.418,-80 24.739,0 49.519,79.996 -24.84,0.004 z m 229.102,0 c 1.359,-1.774 2.055,-3.895 2.055,-6.453 0,-6.024 -3.016,-13.563 -5.653,-20.344 l -19.843,-53.203 22,0 21.578,57.726 21.386,-57.726 33.754,0 -30.668,79.996 -44.609,0.004 z m 166.434,0 c 4.367,-4.785 5.488,-11.692 5.488,-22.274 l 0,-57.73 32.769,0.004 0,57.726 c 0,12.528 0.618,18.985 6.825,22.215 l -45.082,0.059 z m 93.777,0 c 19.43,-5.907 30.742,-20.711 30.742,-48.262 0,-14.141 -2.965,-24.359 -8.035,-31.738 l 38.426,0 c 4.156,8.324 6.523,18.742 6.523,31.738 0,23.418 -7.176,38.516 -18.476,48.25 l -49.18,0.012 z m 130.477,0 c -18.926,-17.516 -28.407,-44.942 -31.543,-80 l 36.418,0 c 1.949,33.265 8.91,65.941 32.457,79.965 l -37.332,0.035 z m 94.05,0 C 960.215,231.699 966.891,198.09 968.727,166 l 36.283,0.055 c -3.25,33.754 -12.865,61.879 -32.373,79.945 l -36.149,0.055 z m 98.602,0 c 5.71,-6.032 10.46,-14.746 17.55,-26.797 l 31.61,-53.203 37.31,0 -47.51,79.996 -38.96,0.004 z m 151.29,0 -49.42,-80 24.74,0 49.51,79.996 -24.83,0.004 z m 88.78,0 c -18.93,-17.516 -28.41,-44.942 -31.54,-80 l 36.41,0 c 1.95,33.265 8.91,65.941 32.46,79.965 l -37.33,0.035 z m 94.05,0 c 23.72,-14.356 30.4,-47.965 32.24,-80.055 l 36.28,0.055 c -3.25,33.754 -12.86,61.879 -32.37,79.945 l -36.15,0.055 z m 283.57,0 c 1.36,-1.774 2.05,-3.895 2.05,-6.453 0,-6.024 -3.01,-13.563 -5.65,-20.344 l -19.84,-53.203 22,0 21.58,57.726 21.38,-57.726 33.76,0 -30.67,79.996 -44.61,0.004 z m 278.11,0 c 4.51,-5.028 5.65,-11.914 5.65,-21.899 l 0,-58.101 32.77,0 0,58.101 c 0,12.078 0.53,18.578 5.46,21.867 l -43.88,0.032 z m 121.37,0 c 10.99,-4.664 11.6,-14.528 14.26,-28.301 l 11.83,0 -1.17,28.301 -24.92,0 z m 81.13,0 c 4.39,-5.028 5.36,-12.77 5.36,-26.797 l 0,-53.203 19.59,0 0,77.691 26.32,-77.691 32.89,0 -27.82,79.996 -56.34,0.004 z m 194.04,0 -27.55,-80 19.49,0 26.19,77.691 0.25,-77.691 33.28,0 0,79.996 -51.66,0.004 z m 113.61,0 c 4.36,-4.785 5.48,-11.692 5.48,-22.274 l 0,-57.73 32.77,0.004 0,57.726 c 0,12.528 0.62,18.985 6.82,22.215 l -45.07,0.059 z m 93.77,0 c 19.43,-5.907 30.74,-20.711 30.74,-48.262 0,-14.141 -2.96,-24.359 -8.03,-31.738 l 38.42,0 c 4.16,8.324 6.52,18.742 6.52,31.738 0,23.418 -7.17,38.516 -18.47,48.25 l -49.18,0.012 z m 108.62,0 c 3.81,-4.344 4.92,-10.946 4.92,-22.274 l 0,-57.73 32.78,0.004 0,57.726 c 0,12.68 0.49,19.106 5.59,22.285 l -43.29,-0.011 z m 88.38,0 c 18.52,-5.285 32.19,-18.164 32.19,-43.746 0,-16.973 -4.76,-28.481 -12.1,-36.286 l 40.48,0.032 c 5.37,8.351 8.54,18.984 8.54,32.488 0,22.566 -6.58,37.637 -17.59,47.543 l -51.52,-0.031 z m 121.05,0 c 4.52,-5.028 5.66,-11.914 5.66,-21.899 l 0,-58.101 32.76,0 0,58.101 c 0,12.078 0.54,18.578 5.46,21.867 l -43.88,0.032 z m 121.37,0 c 10.99,-4.664 11.59,-14.528 14.25,-28.301 l 11.84,0 -1.17,28.301 -24.92,0 z m 80.7,0 c -10.36,-10.504 -16.05,-24.539 -16.05,-41.86 0,-15.855 4.85,-28.156 12.62,-38.199 l 57.4,0.059 c -22.11,11.758 -39.88,24.672 -39.88,47.179 0,15.215 8.09,26.797 21.43,32.891 l -35.52,-0.07 z m 93.17,0 c 12.15,-3.36 22.26,-7.711 28.65,-10.594 l 0,10.594 -28.65,0 z m 139.22,0 c 1.36,-1.774 2.05,-3.895 2.05,-6.453 0,-6.024 -3.01,-13.563 -5.65,-20.344 l -19.84,-53.203 22,0 21.57,57.726 21.39,-57.726 33.76,0 -30.67,79.996 -44.61,0.004 z m 165.74,0 c -10.35,-10.504 -16.05,-24.539 -16.05,-41.86 0,-15.855 4.86,-28.156 12.63,-38.199 l 57.39,0.059 c -22.11,11.758 -39.88,24.672 -39.88,47.179 0,15.215 8.09,26.797 21.43,32.891 l -35.52,-0.07 z m 93.17,0 c 12.16,-3.36 22.27,-7.711 28.65,-10.594 l 0,10.594 -28.65,0 z m -1483.5,-80 0,15.16 -8.66,0 c -0.94,-5.531 -1.85,-10.66 -3.6,-15.098 l 12.26,-0.062 z m 921.97,0 0,15.16 -8.66,0 c -0.94,-5.531 -1.85,-10.66 -3.6,-15.098 l 12.26,-0.062 z m 758.21,0 c 3.95,11.562 15.8,18.554 31.78,18.554 19.22,0 36.78,-7.414 45.29,-11.254 l 0,19.215 c -7.96,1.645 -22.78,4.395 -40.62,4.395 -29.63,0 -50.59,-10.852 -57.43,-30.93 l 20.98,0.02 z m 161.59,0 0,27.89 -51.34,-6.316 0,-4.668 c 17.73,-2.055 26.32,-1.465 27.35,-16.898 l 23.99,-0.008"
         style="fill:#231f20;fill-opacity:1;fill-rule:evenodd;stroke:none"
         id="path68"
         inkscape:connector-curvature="0" /><path
         d="m 110.324,246.055 -10.4881,17.66 -56.1289,0 0,-6.406 c 13.5664,-0.996 21.2149,-4.426 27.6485,-11.235 l 38.9685,-0.019 z m 137.164,0 10.934,17.66 -24.863,0 -10.911,-17.664 24.84,0.004 z m 248.871,0 -6.769,17.66 -64.789,0 0,-6.406 c 13.914,-3.34 23.101,-6.067 26.949,-11.211 l 44.609,-0.043 z m 166.907,0 c 4.621,2.347 12.336,2.968 25.195,2.968 8.754,0 16.633,-0.953 23.5,-3.023 l 49.18,0.055 c -20.508,17.66 -54.594,17.66 -83.981,17.66 l -91.16,0 0,-6.406 c 17.477,-2.641 27.063,-5.5 32.184,-11.188 l 45.082,-0.066 z m 216.504,0 c 7.652,4.523 17.054,7.113 28.605,7.113 11.348,0 20.59,-2.605 28.113,-7.148 l 36.149,0.035 c -15.024,13.851 -35.907,21.8 -64.262,21.8 -29.219,0 -50.656,-7.667 -65.937,-21.804 l 37.332,0.004 z m 194.28,0 -10.49,17.66 -56.12,0 0,-6.406 c 13.56,-0.996 21.21,-4.426 27.65,-11.235 l 38.96,-0.019 z m 137.16,0 10.94,17.66 -24.86,0 -10.91,-17.664 24.83,0.004 z m 101.28,0 c 7.65,4.523 17.05,7.113 28.61,7.113 11.34,0 20.58,-2.605 28.11,-7.148 l 36.15,0.035 c -15.02,13.851 -35.91,21.8 -64.26,21.8 -29.22,0 -50.66,-7.667 -65.94,-21.804 l 37.33,0.004 z m 384.9,0 -6.77,17.66 -64.79,0 0,-6.406 c 13.92,-3.34 23.1,-6.067 26.95,-11.211 l 44.61,-0.043 z m 277.38,0 c 3.37,2.218 8.8,2.968 17.52,2.968 l 39.55,0 c 9.29,0 15.78,-1.031 20.42,-2.992 l 24.92,0.024 -0.73,17.66 -177.96,0 0,-6.406 c 17.54,-2.418 27.21,-5.594 32.4,-11.313 l 43.88,0.059 z m 214.96,0 -6.15,17.66 -82.5,0 0,-6.406 c 17.73,-3.625 27.27,-5.637 32.31,-11.329 l 56.34,0.075 z m 189.36,0 0,17.66 -45.59,0 -6.07,-17.664 51.66,0.004 z m 107.02,0 c 4.62,2.347 12.34,2.968 25.2,2.968 8.75,0 16.64,-0.953 23.5,-3.023 l 49.18,0.055 c -20.51,17.66 -54.59,17.66 -83.98,17.66 l -91.16,0 0,-6.406 c 17.48,-2.641 27.06,-5.5 32.19,-11.188 l 45.07,-0.066 z m 200.61,0 c 3.85,2.41 10.31,2.968 21.15,2.968 8.38,0 16.54,-0.89 23.94,-2.988 l 51.52,0.02 c -15.44,13.929 -39.58,17.66 -66.42,17.66 l -106.6,0 0,-6.406 c 18.26,-3.653 28.07,-5.469 33.12,-11.243 l 43.29,-0.011 z m 210.02,0 c 3.37,2.218 8.8,2.968 17.52,2.968 l 39.55,0 c 9.29,0 15.78,-1.031 20.42,-2.992 l 24.92,0.024 -0.73,17.66 -177.96,0 0,-6.406 c 17.54,-2.418 27.21,-5.594 32.4,-11.313 l 43.88,0.059 z m 193.71,0 c 6.8,3.175 14.98,4.855 24.14,4.855 11.95,0 23.44,-2.09 33.51,-4.867 l 28.65,0.012 0,15.773 c -10.93,2.258 -31.27,6.027 -55.75,6.027 -28.97,0 -51.89,-7.55 -66.07,-21.859 l 35.52,0.059 z m 241.48,0 -6.77,17.66 -64.79,0 0,-6.406 c 13.92,-3.34 23.1,-6.067 26.95,-11.211 l 44.61,-0.043 z m 156.65,0 c 6.81,3.175 14.98,4.855 24.15,4.855 11.95,0 23.43,-2.09 33.5,-4.867 l 28.65,0.012 0,15.773 c -10.92,2.258 -31.26,6.027 -55.75,6.027 -28.96,0 -51.88,-7.55 -66.07,-21.859 l 35.52,0.059"
         style="fill:#231f20;fill-opacity:1;fill-rule:evenodd;stroke:none"
         id="path70"
         inkscape:connector-curvature="0" /></g></g></svg>