<?xml version="1.0" encoding="UTF-8" standalone="no"?>
<!-- Created with Inkscape (http://www.inkscape.org/) -->
<svg xmlns:rdf="http://www.w3.org/1999/02/22-rdf-syntax-ns#" xmlns="http://www.w3.org/2000/svg" xml:space="preserve" version="1.1" xmlns:cc="http://creativecommons.org/ns#" xmlns:dc="http://purl.org/dc/elements/1.1/" viewBox="0 0 516.72 467.1"><metadata><rdf:RDF><cc:Work rdf:about=""><dc:format>image/svg+xml</dc:format><dc:type rdf:resource="http://purl.org/dc/dcmitype/StillImage"/><dc:title/></cc:Work></rdf:RDF></metadata><g transform="matrix(1.25,0,0,-1.25,0,467.10188)"><g transform="scale(0.1,0.1)"><path fill-rule="evenodd" fill="#4f4c4c" d="m182.41,632.47c-10.918,2.261-31.258,6.031-55.746,6.031-50.105,0-82.125-22.609-82.125-63.66,0-79.11,120.93-69.692,120.93-133.35,0-32.023-19.59-47.84-52.738-47.84-25.618,0-51.614,9.789-65.543,16.567v-25.989c6.4023-1.511,33.902-7.531,60.265-7.531,48.602,0,91.539,20.723,91.539,72.699,0,82.493-124.3,74.961-124.3,134.48,0,22.98,18.453,37.672,45.574,37.672,26.367,0,50.472-10.172,62.152-15.442v26.36"/><path fill-rule="evenodd" fill="#4f4c4c" d="m330.44,391.39c-59.14,0-61.777,68.929-61.777,116.02,0,51.981,4.145,116.4,61.777,116.4,58.387,0,61.024-68.93,61.024-116.4,0-51.609-4.145-116.02-61.024-116.02zm0-14.692c74.59,0,97.946,50.852,97.946,130.71,0,74.961-22.606,131.09-97.946,131.09-74.957,0-98.691-50.48-98.691-131.09,0-74.969,21.094-130.71,98.691-130.71"/><path fill-rule="evenodd" fill="#4f4c4c" d="m485.25,380.84,139.54,0,1.895,55.75-11.836,0c-3.008-25.238-4.141-41.059-32.399-41.059h-33.531c-30.891,0-30.891,2.258-30.891,33.149v205.68l-70.445-8.668v-6.402c25.992-3.019,37.672-1.879,37.672-27.879v-210.57"/><path fill-rule="evenodd" fill="#4f4c4c" d="m837.83,634.36-22.219,0,0-164.24c0-35.41,0-78.73-62.156-78.73-54.621,0-54.621,54.238-54.621,81.738v161.23l-70.441-8.668v-6.402c25.617-3.019,37.668-1.879,37.668-27.879v-118.28c0-52.359,6.027-96.43,87.015-96.43,84.754,0,84.754,51.602,84.754,97.93v159.73"/><path fill-rule="evenodd" fill="#4f4c4c" d="m1068,403.06c-4.51-1.5-27.87-9.407-50.09-9.407-82.505,0-93.052,78.727-93.052,132.21,0,57.641,21.094,95.692,61.027,95.692,36.915,0,43.315-26.75,45.205-38.43h36.91c-2.63,25.617-22.97,55.379-79.849,55.379-77.223,0-100.21-53.871-100.21-122.43,0-76.461,38.43-139.37,109.24-139.37,35.034,0,52.734,4.52,70.814,10.539v15.821"/><path fill-rule="evenodd" fill="#4f4c4c" d="m1114.6,380.84,32.77,0,0,253.52-70.44-8.668,0-6.402c25.99-3.019,37.67-1.879,37.67-27.879v-210.57"/><path fill-rule="evenodd" fill="#4f4c4c" d="m1300.7,391.39c-59.14,0-61.78,68.929-61.78,116.02,0,51.981,4.15,116.4,61.78,116.4,58.39,0,61.02-68.93,61.02-116.4,0-51.609-4.14-116.02-61.02-116.02zm0-14.692c74.59,0,97.94,50.852,97.94,130.71,0,74.961-22.59,131.09-97.94,131.09-74.96,0-98.69-50.48-98.69-131.09,0-74.969,21.09-130.71,98.69-130.71"/><path fill-rule="evenodd" fill="#4f4c4c" d="m1454.7,380.84,19.58,0,0,221.12,0.76,0,127.32-221.12,28.63,0,0,253.52-19.59,0,0-205.68-0.75,0-118.28,205.68-75.34,0,0-6.41c32.39-5.269,37.67-7.91,37.67-38.047v-209.06"/><path fill-rule="evenodd" fill="#4f4c4c" d="m1700.3,380.84,146.31,0,2.66,51.23-11.84,0c-5.28-28.629-7.17-36.539-32.79-36.539h-40.68c-27.5,0-30.89,0-30.89,21.848v88.519h47.84c32.02,0,33.15-10.168,36.92-32.019h8.66v77.98h-8.66c-3.02-17.711-5.65-31.269-36.92-31.269h-47.84v74.211c0,20.34,1.51,24.871,22.98,24.871h39.55c31.27,0,30.89-11.68,34.67-31.274h11.84l-1.9,45.961h-177.96v-6.41c32.78-4.519,38.05-11.679,38.05-33.148v-213.96"/><path fill-rule="evenodd" fill="#4f4c4c" d="m2018.6,632.47c-10.91,2.261-31.26,6.031-55.74,6.031-50.11,0-82.12-22.609-82.12-63.66,0-79.11,120.92-69.692,120.92-133.35,0-32.023-19.59-47.84-52.74-47.84-25.62,0-51.61,9.789-65.55,16.567v-25.989c6.41-1.511,33.91-7.531,60.27-7.531,48.6,0,91.54,20.723,91.54,72.699,0,82.493-124.31,74.961-124.31,134.48,0,22.98,18.46,37.672,45.58,37.672,26.37,0,50.47-10.172,62.15-15.442v26.36"/><path fill-rule="evenodd" fill="#4f4c4c" d="m2228.7,591.41c0,24.481,3.01,28.262,25.61,28.262,67.43,0,85.14-47.473,85.14-112.26,0-78.73-30.14-111.88-90.79-111.88-19.96,0-19.96,9.41-19.96,27.879v168zm-32.77-210.57,40.68,0c78.73,0,139.75,15.07,139.75,126.57s-58.38,126.95-138.25,126.95h-79.85v-6.41c32.77-6.398,37.67-7.91,37.67-36.539v-210.57"/><path fill-rule="evenodd" fill="#4f4c4c" d="m2433.6,380.84,146.31,0,2.65,51.23-11.83,0c-5.28-28.629-7.17-36.539-32.79-36.539h-40.69c-27.5,0-30.88,0-30.88,21.848v88.519h47.84c32.01,0,33.14-10.168,36.92-32.019h8.66v77.98h-8.66c-3.02-17.711-5.66-31.269-36.92-31.269h-47.84v74.211c0,20.34,1.5,24.871,22.97,24.871h39.56c31.27,0,30.89-11.68,34.67-31.274h11.83l-1.9,45.961h-177.95v-6.41c32.77-4.519,38.05-11.679,38.05-33.148v-213.96"/><path fill-rule="evenodd" fill="#4f4c4c" d="m2918.7,521.72-70.81,0,0-6.399c32.76-5.269,38.04-8.289,38.04-38.05v-80.239c-10.55-2.633-16.57-3.379-29.01-3.379-72.32,0-92.29,63.657-92.29,126.94,0,41.058,6.03,100.96,64.79,100.96,39.56,0,48.22-24.871,50.11-39.559h36.91c-2.26,31.27-29.76,56.508-86.26,56.508-79.11,0-102.46-48.969-102.46-120.92,0-88.902,34.65-140.88,111.87-140.88,34.29,0,68.19,8.281,79.11,10.922v134.1"/><path fill-rule="evenodd" fill="#4f4c4c" d="m2985.4,380.84,146.31,0,2.66,51.23-11.84,0c-5.28-28.629-7.17-36.539-32.78-36.539h-40.69c-27.5,0-30.89,0-30.89,21.848v88.519h47.84c32.02,0,33.15-10.168,36.92-32.019h8.66v77.98h-8.66c-3.02-17.711-5.65-31.269-36.92-31.269h-47.84v74.211c0,20.34,1.51,24.871,22.98,24.871h39.55c31.27,0,30.89-11.68,34.68-31.274h11.83l-1.9,45.961h-177.96v-6.41c32.78-4.519,38.05-11.679,38.05-33.148v-213.96"/><path fill-rule="evenodd" fill="#4f4c4c" d="m3303.6,632.47c-10.92,2.261-31.27,6.031-55.75,6.031-50.11,0-82.12-22.609-82.12-63.66,0-79.11,120.92-69.692,120.92-133.35,0-32.023-19.59-47.84-52.74-47.84-25.62,0-51.61,9.789-65.55,16.567v-25.989c6.41-1.511,33.91-7.531,60.27-7.531,48.6,0,91.54,20.723,91.54,72.699,0,82.493-124.31,74.961-124.31,134.48,0,22.98,18.46,37.672,45.59,37.672,26.36,0,50.47-10.172,62.15-15.442v26.36"/><path fill-rule="evenodd" fill="#4f4c4c" d="m3417.4,380.84,32.77,0,0,238.83,33.91,0c32.41,0,32.41-13.563,34.67-36.551h11.83l-1.9,51.238h-189.79l-1.9-51.238h11.83c2.27,22.988,3.02,36.551,34.67,36.551h33.91v-238.83"/><path fill-rule="evenodd" fill="#4f4c4c" d="m3572.9,380.84,32.76,0,0,253.52-70.43-8.668,0-6.402c25.99-3.019,37.67-1.879,37.67-27.879v-210.57"/><path fill-rule="evenodd" fill="#4f4c4c" d="m3758.9,391.39c-59.14,0-61.78,68.929-61.78,116.02,0,51.981,4.14,116.4,61.78,116.4,58.39,0,61.02-68.93,61.02-116.4,0-51.609-4.14-116.02-61.02-116.02zm0-14.692c74.59,0,97.94,50.852,97.94,130.71,0,74.961-22.6,131.09-97.94,131.09-74.96,0-98.69-50.48-98.69-131.09,0-74.969,21.09-130.71,98.69-130.71zm-12.43,287.79,16.2,0,22.22,31.27c4.52,6.777,7.16,10.918,7.16,15.07,0,7.898-6.78,12.797-14.32,12.797-11.3,0-15.06-4.137-18.45-15.82l-12.81-43.317"/><path fill-rule="evenodd" fill="#4f4c4c" d="m3913,380.84,19.59,0,0,221.12,0.76,0,127.32-221.12,28.63,0,0,253.52-19.59,0,0-205.68-0.75,0-118.28,205.68-75.35,0,0-6.41c32.4-5.269,37.67-7.91,37.67-38.047v-209.06"/><path stroke-linejoin="miter" d="m848.6,1974c0,421.32,517.62,762.86,1156.2,762.86,638.55,0,1156.2-341.54,1156.2-762.86s-517.62-762.85-1156.2-762.85c-638.55,0-1156.2,341.53-1156.2,762.85z" stroke="#22467f" stroke-linecap="butt" stroke-miterlimit="3.8636899" stroke-dasharray="none" stroke-width="34.89199829" fill="none"/><path stroke-linejoin="miter" d="m735.59,1763.7c0,305.16,568.22,552.54,1269.2,552.54,700.96,0,1269.2-247.38,1269.2-552.54,0-305.17-568.22-552.54-1269.2-552.54-700.97,0-1269.2,247.37-1269.2,552.54z" stroke="#22467f" stroke-linecap="butt" stroke-miterlimit="3.8636899" stroke-dasharray="none" stroke-width="34.89199829" fill="none"/><path stroke-linejoin="miter" d="m475.34,1501c0,160.09,684.74,289.87,1529.4,289.87,844.69,0,1529.4-129.78,1529.4-289.87s-684.74-289.87-1529.4-289.87c-844.7,0-1529.4,129.78-1529.4,289.87z" stroke="#22467f" stroke-linecap="butt" stroke-miterlimit="3.8636899" stroke-dasharray="none" stroke-width="34.89199829" fill="none"/><path fill-rule="nonzero" fill="#ffffff" d="m1648.7,900.44c357.23,181.45,509.1,387.01,520.04,700.23,5.09,145.9-22.26,283.85-81.41,413.18l-272.76,643.45c-44.79,103.91-55.81,220.05-52.1,326.12,8.21,235.24,119.82,370.24,397.62,517.87l-75.98,179.36c-352.2-186.08-501.47-400.31-512.45-714.69-4.68-133.91,14.28-271.1,72.29-393.26l268.54-639.43c46.48-112.6,74.56-228.44,70.81-335.8-8.38-239.99-124.65-379.62-407.23-515.27l72.63-181.76"/><path stroke-linejoin="miter" d="m1648.7,900.44c357.23,181.45,509.1,387.01,520.04,700.23,5.09,145.9-22.26,283.85-81.41,413.18l-272.76,643.45c-44.79,103.91-55.81,220.05-52.1,326.12,8.21,235.24,119.82,370.24,397.62,517.87l-75.98,179.36c-352.2-186.08-501.47-400.31-512.45-714.69-4.68-133.91,14.28-271.1,72.29-393.26l268.54-639.43c46.48-112.6,74.56-228.44,70.81-335.8-8.38-239.99-124.65-379.62-407.23-515.27l72.63-181.76z" stroke="#ffffff" stroke-linecap="butt" stroke-miterlimit="3.8636899" stroke-dasharray="none" stroke-width="112.33000183" fill="none"/><path fill-rule="nonzero" fill="#cf181f" d="m1648.7,900.44c357.23,181.45,509.1,387.01,520.04,700.23,5.09,145.9-22.26,283.85-81.41,413.18l-272.76,643.45c-44.79,103.91-55.81,220.05-52.1,326.12,8.21,235.24,119.82,370.24,397.62,517.87l-75.98,179.36c-352.2-186.08-501.47-400.31-512.45-714.69-4.68-133.91,14.28-271.1,72.29-393.26l268.54-639.43c46.48-112.6,74.56-228.44,70.81-335.8-8.38-239.99-124.65-379.62-407.23-515.27l72.63-181.76"/><path fill-rule="nonzero" fill="#4f4c4c" d="m1085.4,147.29-65.54,110.37-56.13,0,0-6.398c25.61-1.891,30.133-12.43,45.2-38.051l53.49-90.031v-119.04h32.78v119.04l83.24,134.48h-24.86l-68.18-110.37"/><path fill-rule="nonzero" fill="#4f4c4c" d="m3960.7,24.07c-5.98,0-10.82-4.8398-10.82-10.809,0-5.9804,4.84-10.82,10.82-10.82,5.97,0,10.81,4.8398,10.81,10.82,0,5.9688-4.84,10.809-10.81,10.809"/><path fill-rule="nonzero" fill="#4f4c4c" d="m1297.4,14.691c-59.14,0-61.78,68.938-61.78,116.02,0,51.988,4.15,116.4,61.78,116.4,58.39,0,61.02-68.929,61.02-116.4,0-51.602-4.14-116.02-61.02-116.02zm0,247.12c-74.96,0-98.69-50.477-98.69-131.1,0-74.96,21.1-130.71,98.7-130.71,74.59,0,97.94,50.852,97.94,130.71,0,74.969-22.6,131.1-97.94,131.1"/><path fill-rule="nonzero" fill="#4f4c4c" d="m3907.7,13.852-24.43,0c-22.51,0-22.51,1.6406-22.51,24.148v149.89l-51.34-6.309v-4.672c18.94-2.191,27.45-1.371,27.45-20.308v-153.46h101.69l1.38,40.629h-8.63c-2.19-18.398-3.02-29.918-23.61-29.918"/><path fill-rule="nonzero" fill="#4f4c4c" d="m1586.3,102.84,42.95,114.89,42.56-114.89-85.51,0zm-4.14,154.82,0-6.398c18.84-4.52,29.01-7.922,29.01-17.711,0-6.02-3.01-13.563-5.65-20.34l-78.1-209.07h23.74l29.75,84.008h94.93l31.64-84.008h36.54l-97.19,253.52h-64.79"/><path fill-rule="nonzero" fill="#4f4c4c" d="M121.67,147.29,56.129,257.66,0,257.66,0,251.26c25.613-1.891,30.137-12.43,45.199-38.051l53.492-90.031v-119.04h32.774v119.04l83.246,134.48h-24.856l-68.183-110.37"/><path fill-rule="nonzero" fill="#4f4c4c" d="m864.67,14.691c-59.141,0-61.777,68.938-61.777,116.02,0,51.988,4.144,116.4,61.777,116.4,58.391,0,61.023-68.929,61.023-116.4,0-51.602-4.136-116.02-61.023-116.02zm0,247.12c-74.957,0-98.691-50.477-98.691-131.1,0-74.96,21.09-130.71,98.69-130.71,74.59,0,97.945,50.852,97.945,130.71,0,74.969-22.597,131.1-97.945,131.1"/><path fill-rule="nonzero" fill="#4f4c4c" d="m385.24,102.84,42.942,114.89,42.562-114.89-85.504,0zm-4.144,154.82,0-6.398c18.832-4.52,29.004-7.922,29.004-17.711,0-6.02-3.012-13.563-5.649-20.34l-77.98-209.07h23.734l29.758,84.008h94.926l31.64-84.008h36.539l-97.183,253.52h-64.789"/><path fill-rule="nonzero" fill="#4f4c4c" d="m628.93,140.89-16.196,0,0,76.839c0,21.852,1.883,25.239,32.024,25.239,33.519,0,54.242-13.938,54.242-51.227,0-48.594-35.035-50.851-70.07-50.851zm4.523,116.77-91.164,0,0-6.398c32.399-4.903,37.676-10.551,37.676-33.532v-213.59h32.769v122.05h16.95c45.961,0,106.22,0,106.22,65.551,0,65.918-56.879,65.918-102.45,65.918"/><path fill-rule="nonzero" fill="#4f4c4c" d="m3220.8,102.84,42.94,114.89,42.56-114.89-85.5,0zm-4.15,154.82,0-6.398c18.83-4.52,29-7.922,29-17.711,0-6.02-3.01-13.563-5.65-20.34l-77.97-209.07h23.73l29.76,84.008h94.92l31.64-84.008h36.55l-97.19,253.52h-64.79"/><path fill-rule="nonzero" fill="#4f4c4c" d="m3025.3,207.19c0,22.969,18.45,37.668,45.58,37.668,26.36,0,50.47-10.179,62.15-15.449v26.36c-10.92,2.269-31.26,6.039-55.75,6.039-50.1,0-82.12-22.61-82.12-63.668,0-79.11,120.92-69.68,120.92-133.35,0-32.008-19.59-47.84-52.74-47.84-25.62,0-51.61,9.8008-65.54,16.582v-25.992c6.4-1.5088,33.9-7.54,60.3-7.54,48.59,0,91.53,20.719,91.53,72.699,0,82.5-124.3,74.961-124.3,134.49"/><path fill-rule="nonzero" fill="#4f4c4c" d="m2647.6,143.52-10.17,0,0,74.21c0,22.231,1.51,25.239,26.75,25.239,29.38,0,56.12-10.93,56.12-46.707,0-52.742-45.95-52.742-72.7-52.742zm109.62,48.968c0,54.254-38.05,65.172-84,65.172h-106.61v-6.398c32.02-6.403,38.04-7.16,38.04-33.532v-213.59h32.78v124.69h18.83l74.97-124.69h36.91l-76.09,126.95c33.15,4.519,65.17,18.461,65.17,61.398"/><path fill-rule="nonzero" fill="#4f4c4c" d="m2919.2,18.84-40.68,0c-27.5,0-30.9,0-30.9,21.84v88.531h47.85c32.02,0,33.14-10.18,36.91-32.02h8.67v77.969h-8.67c-3.01-17.699-5.65-31.262-36.91-31.262h-47.85v74.204c0,20.347,1.51,24.867,22.99,24.867h39.55c31.27,0,30.89-11.68,34.67-31.27h11.84l-1.9,45.961h-177.96v-6.398c32.77-4.52,38.04-11.68,38.04-33.16v-213.96h146.31l2.66,51.23h-11.84c-5.27-28.621-7.16-36.531-32.78-36.531"/><path fill-rule="nonzero" fill="#4f4c4c" d="m3423.4,207.19c0,22.969,18.46,37.668,45.58,37.668,26.37,0,50.48-10.179,62.16-15.449v26.36c-10.93,2.269-31.27,6.039-55.76,6.039-50.1,0-82.11-22.61-82.11-63.668,0-79.11,120.91-69.68,120.91-133.35,0-32.008-19.59-47.84-52.73-47.84-25.62,0-51.61,9.8008-65.55,16.582v-25.992c6.4-1.5088,33.8-7.54,60.2-7.54,48.6,0,91.54,20.719,91.54,72.699,0,82.5-124.31,74.961-124.31,134.49"/><path fill-rule="nonzero" fill="#4f4c4c" d="m2215.2,41.059-75.33,216.6-82.5,0,0-6.398c33.15-6.782,37.67-7.922,37.67-38.051v-209.07h19.59v233.55l79.1-233.55h29.39l78.72,233.55,0.75-233.55h32.78v253.52h-45.58l-74.59-216.6"/><path fill-rule="nonzero" fill="#4f4c4c" d="m3810.6,24.07c-5.97,0-10.81-4.8398-10.81-10.809,0-5.9804,4.84-10.82,10.81-10.82s10.82,4.8398,10.82,10.82c0,5.9688-4.85,10.809-10.82,10.809"/><path fill-rule="nonzero" fill="#4f4c4c" d="m2451.8,140.89-16.2,0,0,76.839c0,21.852,1.89,25.239,32.02,25.239,33.53,0,54.25-13.938,54.25-51.227,0-48.594-35.03-50.851-70.07-50.851zm4.52,116.77-91.16,0,0-6.398c32.4-4.903,37.67-10.551,37.67-33.532v-213.59h32.77v122.05h16.95c45.97,0,106.23,0,106.23,65.551,0,65.918-56.88,65.918-102.46,65.918"/><path fill-rule="nonzero" fill="#4f4c4c" d="m1997.2,18.84-40.69,0c-27.49,0-30.88,0-30.88,21.84v88.531h47.84c32.02,0,33.14-10.18,36.92-32.02h8.66v77.969h-8.66c-3.02-17.699-5.66-31.262-36.92-31.262h-47.84v74.204c0,20.347,1.5,24.867,22.97,24.867h39.55c31.27,0,30.9-11.68,34.68-31.27h11.83l-1.89,45.961h-177.96v-6.398c32.77-4.52,38.05-11.68,38.05-33.16v-213.96h146.31l2.65,51.23h-11.83c-5.3-28.62-7.2-36.53-32.8-36.53"/><path fill-rule="nonzero" fill="#4f4c4c" d="m3697.8,151.11c0,16.743,13.46,27.45,33.22,27.45,19.22,0,36.78-7.407,45.3-11.258v19.219c-7.96,1.64-22.79,4.39-40.63,4.39-36.51,0-59.84-16.469-59.84-46.398,0-57.653,88.12-50.782,88.12-97.18,0-23.332-14.28-34.863-38.44-34.863-18.67,0-37.61,7.1406-47.77,12.082v-18.941c4.67-1.0977,24.71-5.4883,43.93-5.4883,35.42,0,66.71,15.098,66.71,52.981,0,60.117-90.6,54.628-90.6,98.007"/><path fill-rule="nonzero" fill="#4f4c4c" d="m4123,23.84c-5.98,0-10.82-4.8398-10.82-10.808,0-5.9805,4.84-10.82,10.82-10.82,5.97,0,10.81,4.8398,10.81,10.82,0,5.9687-4.84,10.808-10.81,10.808"/><path fill-rule="nonzero" fill="#4f4c4c" d="m4088.8,70.301c0-6.4102-0.23-13.02-0.68-19.801-0.47-6.8008-2.12-12.98-4.96-18.57-2.85-5.5977-7.33-10.18-13.48-13.758-6.15-3.5821-14.9-5.3711-26.28-5.3711-9.9,0-17.55,2.1601-22.96,6.4687-5.41,4.3008-9.36,9.5821-11.84,15.82-2.47,6.2305-3.94,12.789-4.39,19.672-0.46,6.8789-0.7,12.789-0.7,17.75v117.74l-51.44-6.32v-4.68c4.58-0.551,8.62-1.008,12.1-1.379s6.37-1.191,8.67-2.48c2.29-1.282,3.99-3.161,5.09-5.629,1.1-2.481,1.65-6.102,1.65-10.871v-86.379c0-9.5429,0.55-18.582,1.65-27.113,1.1-8.5195,3.76-16,7.98-22.418,4.22-6.4219,10.55-11.512,18.98-15.262,8.44-3.7578,20.09-5.6484,34.94-5.6484,15.41,0,27.33,2.1719,35.77,6.4688,8.44,4.3125,14.58,9.8593,18.43,16.641,3.85,6.7891,6.1,14.449,6.74,22.98,0.64,8.5195,0.97,17,0.97,25.441v116.65h-16.24v-119.95"/></g></g></svg>
